<?xml version="1.0" encoding="utf-8"?>
<!-- Generator: Adobe Illustrator 17.0.0, SVG Export Plug-In . SVG Version: 6.00 Build 0)  -->
<!DOCTYPE svg PUBLIC "-//W3C//DTD SVG 1.1//EN" "http://www.w3.org/Graphics/SVG/1.1/DTD/svg11.dtd">
<svg version="1.1" xmlns="http://www.w3.org/2000/svg" xmlns:xlink="http://www.w3.org/1999/xlink" x="0px" y="0px"
	 width="81.758px" height="120px" viewBox="0 0 81.758 120" enable-background="new 0 0 81.758 120" xml:space="preserve">
<g id="Layer_1">
	<path fill="#613A82" d="M0.004,21.848c0.055,1.372,0.399,2.727,1.068,3.941l0.161,0.324L28.478,71.11l-10.433,7.42l-0.002,0.017
		c-0.445,0.315-0.839,0.757-1.126,1.293c-0.978,1.789-0.413,4.045,1.242,5.037l29.182,17.333l29.192,17.327
		c0.604,0.361,1.328,0.532,2.077,0.437c1.89-0.26,3.308-2.097,3.132-4.13L78.688,79.91l-3.022-35.643
		c-0.013-0.678-0.192-1.345-0.546-1.931c-1.03-1.709-3.18-2.149-4.807-0.998L59.88,48.76L32.645,3.767l-0.011-0.019l-0.012,0.007
		c-1.559-2.599-4.289-3.917-7.032-3.74c-1.275,0.095-2.549,0.502-3.704,1.255l-0.292,0.203l-0.005-0.003L3.7,14.186l0.003,0.023
		H3.699C1.223,15.968-0.085,18.927,0.004,21.848z"/>
</g>
<g id="Layer_2">
</g>
</svg>
