<?xml version="1.0" encoding="utf-8"?>
<!-- Generator: Adobe Illustrator 17.0.0, SVG Export Plug-In . SVG Version: 6.00 Build 0)  -->
<!DOCTYPE svg PUBLIC "-//W3C//DTD SVG 1.1//EN" "http://www.w3.org/Graphics/SVG/1.1/DTD/svg11.dtd">
<svg version="1.1" xmlns="http://www.w3.org/2000/svg" xmlns:xlink="http://www.w3.org/1999/xlink" x="0px" y="0px" width="140px"
	 height="82.443px" viewBox="0 0 140 82.443" enable-background="new 0 0 140 82.443" xml:space="preserve">
<g id="Layer_1">
	
		<ellipse transform="matrix(0.9817 -0.1904 0.1904 0.9817 -5.9437 19.1369)" fill="#613A82" cx="96.598" cy="40.494" rx="43.647" ry="36.093"/>
	<polygon fill="#613A82" points="120.75,65.791 119.386,82.443 104.79,73.294 	"/>
	<polygon fill="#613A82" points="25.037,65.709 29.702,81.752 42.175,69.87 	"/>
	<path fill="#613A82" d="M49.111,49.706c-3.153-16.251,6.081-32.512,21.943-41.784c-7.581-5.041-17.248-8.02-27.754-7.919
		C19.195,0.234-0.19,16.581,0.001,36.514c0.192,19.933,19.888,35.904,43.992,35.672c5.887-0.057,11.489-1.08,16.597-2.877
		C54.732,64.133,50.612,57.448,49.111,49.706z"/>
</g>
<g id="Layer_2">
</g>
</svg>
