<?xml version="1.0" encoding="utf-8"?>
<!-- Generator: Adobe Illustrator 17.0.0, SVG Export Plug-In . SVG Version: 6.00 Build 0)  -->
<!DOCTYPE svg PUBLIC "-//W3C//DTD SVG 1.1//EN" "http://www.w3.org/Graphics/SVG/1.1/DTD/svg11.dtd">
<svg version="1.1" xmlns="http://www.w3.org/2000/svg" xmlns:xlink="http://www.w3.org/1999/xlink" x="0px" y="0px" width="160px"
	 height="159.978px" viewBox="0 0 160 159.978" enable-background="new 0 0 160 159.978" xml:space="preserve">
<g id="Layer_1">
	<g>
		<g>
			<path fill="#613A82" d="M80,0C35.817,0,0,35.817,0,80c0,44.183,35.817,80,80,80c44.183,0,80-35.817,80-80
				C160,35.817,124.183,0,80,0z M94.049,140.915c8.638-3.505,16.34-10.449,17.39-20.432c0.968-9.21-3.826-17.151-10.317-23.024
				c-6.173-5.587-13.536-9.19-20.249-13.958c-3.869-2.746-9.743-8.263-7.675-13.857c-2.689,2.384-4.812,5.718-5.65,9.277
				c-1.673,7.101,2.579,12.635,6.974,17.531c4.444,4.946,4.1,13.434-3.397,15.123c-3.208,0.719-6.605-0.604-8.546-3.331
				c-2.087-2.931-1.627-5.93-0.784-9.207c-7.008,5.107-12.64,12.88-12.622,22.037c0.016,8.397,6.804,16.604,14.058,19.833
				c-14.378-3.408-27.111-13.044-31.083-28.184c-3.976-15.15,1.435-30.421,10.27-42.563c4.416-6.067,9.585-11.51,14.958-16.681
				c5.003-4.812,10.514-9.234,15.046-14.532c4.673-5.463,10.516-15.237,6.082-22.624c8.051,6.195,14.544,16.547,13.458,27.211
				c-0.867,8.508-7.065,17.171-0.993,25.206c4.755,6.289,15.649,3.005,15.325-5.339c14.156,7.558,25.582,20.761,25.262,37.916
				C131.17,122.172,112.304,136.764,94.049,140.915z"/>
		</g>
	</g>
</g>
<g id="Layer_2">
</g>
</svg>
