<?xml version="1.0" encoding="utf-8"?>
<!-- Generator: Adobe Illustrator 17.0.0, SVG Export Plug-In . SVG Version: 6.00 Build 0)  -->
<!DOCTYPE svg PUBLIC "-//W3C//DTD SVG 1.1//EN" "http://www.w3.org/Graphics/SVG/1.1/DTD/svg11.dtd">
<svg version="1.1" xmlns="http://www.w3.org/2000/svg" xmlns:xlink="http://www.w3.org/1999/xlink" x="0px" y="0px" width="120px"
	 height="120.234px" viewBox="0 0 120 120.234" enable-background="new 0 0 120 120.234" xml:space="preserve">
<g id="Layer_1">
	<path fill="#613A82" d="M108.812,47.417l10.198-8.991l-9.881-15.182l-12.264,2.592L81.164,15.321L80.43,1.822L62.26,0
		l-5.596,11.107l-18.091,5.605L27.449,8.867L14.701,21.798l5.278,11.254l-6.849,17.503L0,54.277l2.25,17.919l12.178,2.935
		l9.553,16.217l-5.258,12.477l15.569,9.455l9.908-7.607l18.764,2.723l6.562,11.84l17.167-6.158l0.181-12.412l13.851-12.825
		l13.452,2.289L120,74.006l-9.696-7.886L108.812,47.417z M61.331,84.42c-13.732,0-24.855-11.032-24.855-24.63
		c0-13.578,11.123-24.603,24.855-24.603c13.738,0,24.865,11.025,24.865,24.603C86.197,73.388,75.07,84.42,61.331,84.42z"/>
</g>
<g id="Layer_2">
</g>
</svg>
