<?xml version="1.0" encoding="utf-8"?>
<!-- Generator: Adobe Illustrator 17.0.0, SVG Export Plug-In . SVG Version: 6.00 Build 0)  -->
<!DOCTYPE svg PUBLIC "-//W3C//DTD SVG 1.1//EN" "http://www.w3.org/Graphics/SVG/1.1/DTD/svg11.dtd">
<svg version="1.1" xmlns="http://www.w3.org/2000/svg" xmlns:xlink="http://www.w3.org/1999/xlink" x="0px" y="0px" width="160px"
	 height="160px" viewBox="0 0 160 160" enable-background="new 0 0 160 160" xml:space="preserve">
<g id="Layer_1">
	<g>
		<g>
			<path fill="#613A82" d="M64.387,59.465c-3.208-1.478-7.017-0.094-8.507,3.085c-0.229,0.489-0.371,0.992-0.464,1.503
				c-0.535,2.789,0.857,5.684,3.572,6.934l0.022,0.007c0.617,0.28,1.26,0.43,1.902,0.507c2.683,0.326,5.386-1.039,6.587-3.602
				l0.151-0.431C68.833,64.385,67.456,60.877,64.387,59.465z M88.392,96.714l-0.379-0.22c-0.986-0.455-2.024-0.612-3.04-0.552
				c-2.285,0.117-4.436,1.431-5.469,3.636c-0.254,0.546-0.398,1.109-0.486,1.673c-0.444,2.736,0.935,5.54,3.597,6.765l0.654,0.224
				c0.95,0.318,1.931,0.421,2.881,0.301c2.1-0.283,4.014-1.57,4.971-3.613l0.183-0.513C92.38,101.484,91.154,98.226,88.392,96.714z
				 M80,0C35.817,0,0,35.817,0,80s35.817,80,80,80c44.183,0,80-35.817,80-80S124.183,0,80,0z M122.922,81.284
				c-0.559-0.258-1.089-0.561-1.604-0.879l-22.116,17.69c0.993,3.267,0.849,6.886-0.713,10.224
				c-3.379,7.21-12.015,10.342-19.289,6.992c-7.276-3.35-10.433-11.912-7.056-19.122c0.525-1.12,1.189-2.128,1.941-3.043
				l-8.548-14.044c-3.199,0.875-6.717,0.678-9.964-0.818c-1.746-0.804-3.247-1.912-4.485-3.227L27.67,87.068
				c-0.094,0.507-0.233,1.011-0.464,1.502c-1.491,3.183-5.298,4.565-8.509,3.087c-3.211-1.478-4.604-5.254-3.112-8.438
				c1.488-3.177,5.287-4.557,8.489-3.089l23.406-12.011c-0.608-2.92-0.325-6.046,1.04-8.959c3.376-7.21,12.012-10.34,19.283-6.992
				c7.276,3.35,10.433,11.912,7.056,19.123c-0.671,1.431-1.555,2.692-2.583,3.781l8.267,13.591c3.44-1.186,7.325-1.107,10.887,0.534
				c1.306,0.601,2.478,1.377,3.509,2.283l21.09-16.873c-1.882-3.778-2.09-8.329-0.161-12.445
				c3.379-7.215,12.015-10.345,19.289-6.996c7.273,3.349,10.433,11.911,7.054,19.127C138.833,81.503,130.197,84.634,122.922,81.284z
				 M131.738,62.464c-3.206-1.477-7.017-0.095-8.506,3.086c-0.564,1.201-0.713,2.486-0.508,3.705
				c0.33,2.001,1.619,3.811,3.616,4.731c0.747,0.342,1.526,0.515,2.295,0.564c2.557,0.16,5.074-1.205,6.219-3.649
				C136.343,67.721,134.951,63.945,131.738,62.464z"/>
		</g>
	</g>
</g>
<g id="Layer_2">
</g>
</svg>
