<?xml version="1.0" encoding="utf-8"?>
<!-- Generator: Adobe Illustrator 17.0.0, SVG Export Plug-In . SVG Version: 6.00 Build 0)  -->
<!DOCTYPE svg PUBLIC "-//W3C//DTD SVG 1.1//EN" "http://www.w3.org/Graphics/SVG/1.1/DTD/svg11.dtd">
<svg version="1.1" xmlns="http://www.w3.org/2000/svg" xmlns:xlink="http://www.w3.org/1999/xlink" x="0px" y="0px" width="120px"
	 height="107.631px" viewBox="0 0 120 107.631" enable-background="new 0 0 120 107.631" xml:space="preserve">
<g id="Layer_1">
	<path fill="#613A82" d="M117.398,0h-2.922H5.523H2.597C1.159,0,0,1.154,0,2.579v78.898c0,1.426,1.159,2.58,2.597,2.58h2.927h36.692
		v5.504h-1.814c-1.342,0-2.541,1.163-2.668,2.597l-1.967,4.851l-2.002,4.818l-0.011,0.17l-0.04,0.101l-0.046,3.776
		c-0.137,1.43,0.9,1.758,2.607,1.758h45.061c1.723,0,2.297-1.003,2.297-2.419l-0.056-2.904l-0.056-0.092l-0.016-0.244l-3.074-4.945
		l-2.902-4.871c-0.198-1.433-1.448-2.597-2.794-2.597h-0.34v-5.504h40.081h2.922c1.438,0,2.602-1.154,2.602-2.58V2.579
		C120,1.154,118.837,0,117.398,0z M110.168,70.82c0,1.042-0.93,1.888-2.079,1.888H11.911c-1.148,0-2.078-0.846-2.078-1.888V9.773
		c0-1.044,0.93-1.886,1.474-1.886h96.184c1.748,0,2.678,0.841,2.678,1.886V70.82z"/>
</g>
<g id="Layer_2">
</g>
</svg>
