<?xml version="1.0" encoding="utf-8"?>
<!-- Generator: Adobe Illustrator 17.0.0, SVG Export Plug-In . SVG Version: 6.00 Build 0)  -->
<!DOCTYPE svg PUBLIC "-//W3C//DTD SVG 1.1//EN" "http://www.w3.org/Graphics/SVG/1.1/DTD/svg11.dtd">
<svg version="1.1" xmlns="http://www.w3.org/2000/svg" xmlns:xlink="http://www.w3.org/1999/xlink" x="0px" y="0px" width="160px"
	 height="160px" viewBox="0 0 160 160" enable-background="new 0 0 160 160" xml:space="preserve">
<g id="Layer_1">
	<g>
		<g>
			<path fill="#613A82" d="M79.992,0C35.811,0,0,35.818,0,80s35.811,80,79.992,80c44.178,0,79.992-35.818,79.992-80
				S124.169,0,79.992,0z M17.293,98.084c-3.378-13.142,3.667-27.395,17.323-38.894l-10.426-6.134l39.11-10.034
				c-0.366,0.124-0.838,0.334-1.365,0.585c0.516-0.192,1.006-0.407,1.529-0.593c-20.872,9.527-33.028,30.406-27.895,50.379
				c5.129,19.972,25.851,32.418,48.733,30.723C51.522,129.388,22.578,118.66,17.293,98.084z M95.896,73.275
				c-1.656,2.201-4.402,4.148-8.166,5.784c-3.804,1.657-9.699,3.161-17.515,4.476l-0.443,0.076l-0.217,3.198
				c0,3.194,0.848,5.695,2.52,7.439c1.67,1.749,3.933,2.634,6.72,2.634c2.282,0,4.557-0.526,6.759-1.569
				c2.093-0.997,4.674-2.987,7.624-5.81c0.448,0.329,1.492,1.098,2.124,1.562c-3.315,3.387-6.598,5.898-9.772,7.346
				c-3.319,1.516-6.944,2.282-10.775,2.282c-5.393,0-9.687-1.476-12.76-4.397c-3.062-2.914-4.615-6.942-4.615-11.966
				c0-4.501,1.316-8.885,3.905-13.023c2.598-4.141,6.2-7.452,10.703-9.841c4.511-2.392,9.44-3.604,14.647-3.604
				c3.747,0,6.683,0.855,8.718,2.544c2.028,1.692,3.012,3.765,3.012,6.355C98.368,68.895,97.539,71.092,95.896,73.275z
				 M99.486,119.257c0.366-0.125,0.838-0.332,1.365-0.588c-0.516,0.195-1.006,0.409-1.528,0.598
				c20.874-9.529,33.026-30.407,27.894-50.383c-5.128-19.97-25.852-32.416-48.733-30.716c32.779-5.277,61.723,5.456,67.009,26.026
				c3.376,13.142-3.669,27.396-17.323,38.897l10.425,6.133L99.486,119.257z M83.1,60.763c-2.418,0-4.674,1.363-6.713,4.055
				c-2.88,3.762-4.932,8.983-6.095,15.534l-0.144,0.798l0.803-0.147c5.251-0.957,9.147-2.538,11.573-4.695
				c3.347-3.006,5.043-6.432,5.043-10.197c0-1.626-0.423-2.933-1.252-3.884C85.461,61.253,84.379,60.763,83.1,60.763z"/>
		</g>
	</g>
</g>
<g id="Layer_2">
</g>
</svg>
