<?xml version="1.0" encoding="utf-8"?>
<!-- Generator: Adobe Illustrator 17.0.0, SVG Export Plug-In . SVG Version: 6.00 Build 0)  -->
<!DOCTYPE svg PUBLIC "-//W3C//DTD SVG 1.1//EN" "http://www.w3.org/Graphics/SVG/1.1/DTD/svg11.dtd">
<svg version="1.1" xmlns="http://www.w3.org/2000/svg" xmlns:xlink="http://www.w3.org/1999/xlink" x="0px" y="0px" width="160px"
	 height="160px" viewBox="0 0 160 160" enable-background="new 0 0 160 160" xml:space="preserve">
<g id="Layer_1">
	<path fill="#613A82" d="M136.595,23.43C122.131,8.956,102.116,0,80.011,0c-22.127,0.018-42.131,8.956-56.6,23.43
		c-6.782,6.786-12.293,14.824-16.296,23.726C2.575,57.181,0,68.294,0,80.003c0,22.091,8.971,42.072,23.411,56.546
		C37.88,151.016,57.884,160,80.011,160c22.105,0,42.109-8.984,56.584-23.452C151.061,122.075,160,102.094,160,80.003
		c0-11.947-2.666-23.241-7.355-33.421C148.66,37.958,143.244,30.098,136.595,23.43z M24.281,120.854
		c-3.84-5.212-6.961-10.978-9.225-17.133c1.721,0.416,3.658,0.533,5.151,0.923c2.556,0.632,5.096,4.636,6.154,5.08
		C27.391,110.122,25.339,119.463,24.281,120.854z M128.934,128.916c-12.541,12.503-29.84,20.263-48.923,20.263
		c-11.343,0-22.025-2.761-31.482-7.626c1.162-2.295,1.956-8.984,1.956-8.984s1.672-16.723,1.039-17.753
		c-0.617-1.077-4.856-5.093-7.603-6.347c-2.746-1.287-5.283,0.211-7.605-0.679c-2.33-0.817-3.391-4.434-5.09-5.696
		c-1.678-1.267-4.245-1.267-6.851-1.973c-2.614-0.734-4.355-3.939-4.994-5.221c-0.661-1.252-0.276-4.36,1.68-4.632
		c1.991-0.312,4.03-0.657,11.255-4.191c7.206-3.536-0.876-5.755-0.457-10.826c0.424-5.091,7.197-4.69,9.935-7.654
		c2.763-2.951-1.906-4.853-4.013-6.52c-2.099-1.71-5.498,0.412-6.762,2.737c-1.253,2.302-1.702,4.241-4.28,3.748
		c-2.573-0.483-3.361-0.931-4.807-3.748c-1.479-2.795,1.005-2.977,6.542-6.762c5.548-3.811,2.118-3.811,1.906-5.309
		c-0.204-1.455-2.534-0.847-5.289-1.887l-0.113-0.095c-2.534-1.124-1.121-3.967,0.54-4.972c1.686-1.068,3.592-1.272,5.302-0.229
		c1.656,1.07,1.656,1.888,6.115,0.229c4.454-1.717,4.652-0.229,6.148,1.885c0.95,1.355,2.154,3.368,3.333,5.218
		c0.689,1.084,1.33,2.037,1.939,2.805c1.686,2.13,5.928,0,9.523-2.081l0.091-0.076c3.479-2.134,2.256-5.474,2.449-8.408
		c0.217-2.969-2.104-2.969-3.383-4.014c-1.259-1.044-1.477-4.856-2.947-6.986c-1.482-2.123-4.454-1.915-6.374-1.286
		c-1.884,0.658-5.068,3.416-5.688,3.191c-0.636-0.219-0.438-3.386-1.917-4.439c-0.89-0.624-4.22-0.734-7.115-1.234
		C45.34,17.892,61.845,10.821,80.011,10.821c19.083,0,36.382,7.745,48.923,20.275c2.802,2.802,5.352,5.886,7.625,9.146
		c-6.919,2.228-19.136,6.47-20.061,7.687c-1.256,1.696-5.696,2.558-7.82,1.498c-2.104-1.036-3.597-2.31-5.719-2.106
		c-2.104,0.201-2.983,0.414-4.443,2.106c-0.925,1.06-2.675,2.579-4.438,3.321c-1.052,0.475-2.102,0.756-2.969,0.266
		c-0.267-0.134-0.518-0.128-0.771-0.198c-0.722-0.176-1.388-0.143-1.939,0.064c-0.928,0.32-1.556,0.888-1.556,0.888
		c-2.143,3.026,0.46,6.875,2.171,6.668c1.669-0.226,3.79-3.609,4.862-3.609c1.05,0,3.424,1.93,3.829,2.646
		c0.397,0.737-1.711,5.407-2.977,5.621c-1.267,0.198-5.933,1.677-7.013,1.677c-1.038,0-5.704-1.89-6.759-0.654
		c-1.063,1.305-3.171,1.089-2.138,4.043c1.074,2.96,0,5.285-0.829,5.511c-0.843,0.203-7.839,2.125-0.843,2.325
		c6.988,0.204,8.688-2.122,10.159-2.325c1.49-0.226,4.019-2.126,5.707-1.267c1.716,0.847,4.325-0.472,5.749-0.025
		c1.471,0.433,4.6-3.529,6.085-2.073c1.504,1.447,1.066,4.409,0.686,5.49c-0.449,1.028-2.98,1.893-2.385,3.367
		c0.658,1.476,1.937,3.381,3.848,4.871c1.89,1.479,3.162,3.358,4.429,1.884c1.259-1.463,1.259-3.373,1.917-4.244
		c0.634-0.822,6.55,0.217,6.771,1.489c0.204,1.292,3.162,4.037,3.774,4.23c0.669,0.219,2.986,1.297,2.986,1.297
		s0.669,0.749,1.711,2.992c1.047,2.292,3.157,2.292,4.639,1.872c1.485-0.442,2.677-3.602,4.663-3.376
		c1.978,0.198,2.966-0.666,5.057,1.47c2.019,2.001,2.523,2.499,4.005,3.622C143.822,109.401,137.542,120.293,128.934,128.916z"/>
</g>
<g id="Layer_2">
</g>
</svg>
