<svg xmlns="http://www.w3.org/2000/svg" viewBox="0 0 60 60" enable-background="new 0 0 60 60"><g><path fill="#F80000" d="M51.209 51.209c5.827-5.877 8.791-12.93 8.791-21.209s-2.964-15.332-8.791-21.21c-5.877-5.826-12.93-8.79-21.209-8.79s-15.332 2.964-21.21 8.79c-5.826 5.878-8.79 12.931-8.79 21.21s2.964 15.332 8.79 21.209c5.878 5.878 12.931 8.791 21.21 8.791s15.332-2.913 21.209-8.791z"/><g fill="#fff" stroke="#fff" stroke-width=".563"><path d="M24.094 40.196s-1.72 1 1.224 1.338c3.566.407 5.388.348 9.318-.395 0 0 1.033.648 2.476 1.209-8.809 3.775-19.937-.219-13.018-2.152M23.018 35.269s-1.929 1.428 1.017 1.732c3.809.393 6.817.425 12.023-.577 0 0 .72.73 1.852 1.129-10.651 3.115-22.514.246-14.892-2.284M32.093 26.912c2.171 2.499-.57 4.748-.57 4.748s5.511-2.845 2.98-6.408c-2.364-3.323-4.177-4.973 5.637-10.665 0-.001-15.405 3.846-8.047 12.325M43.744 43.84s1.273 1.049-1.402 1.86c-5.085 1.54-21.164 2.006-25.63.061-1.606-.699 1.405-1.668 2.353-1.871.988-.214 1.552-.174 1.552-.174-1.786-1.258-11.542 2.47-4.955 3.537 17.96 2.913 32.741-1.312 28.082-3.413M24.921 30.164s-8.179 1.943-2.896 2.648c2.23.299 6.677.231 10.818-.116 3.385-.285 6.783-.893 6.783-.893s-1.194.511-2.057 1.101c-8.305 2.184-24.35 1.168-19.731-1.066 3.907-1.888 7.083-1.674 7.083-1.674M39.593 38.365c8.443-4.387 4.539-8.603 1.814-8.035-.668.139-.966.259-.966.259s.248-.388.721-.556c5.39-1.895 9.536 5.589-1.74 8.553.001 0 .132-.116.171-.221M34.503 5.395s4.676 4.677-4.435 11.87c-7.306 5.77-1.666 9.059-.003 12.818-4.264-3.847-7.394-7.235-5.294-10.387 3.081-4.628 11.618-6.872 9.732-14.301M25.751 50.253c8.104.519 20.549-.288 20.843-4.122 0 0-.567 1.454-6.698 2.608-6.917 1.302-15.448 1.15-20.508.315.001.001 1.037.858 6.363 1.199"/></g></g></svg>