<svg xmlns="http://www.w3.org/2000/svg" viewBox="0 0 60 60" enable-background="new 0 0 60 60"><g><circle fill="#1B75BB" cx="30" cy="30" r="30"/><g fill="#fff"><path d="M49.066 38.391c-5.766 6.305-16.381 6.99-24.773 1.263-8.657-5.909-11.822-16.507-7.474-24.249-.903.831-1.722 1.772-2.437 2.821-5.633 8.254-2.753 20.027 6.432 26.296 9.186 6.269 21.2 4.661 26.833-3.593.555-.815 1.027-1.664 1.419-2.538z"/><path d="M50.5 27.92l-.253.36c-3.733 5.103-11.779 5.816-18.221 1.53-6.59-4.385-9.004-12.341-5.392-17.77.278-.418.584-.808.914-1.171.259-.285.534-.553.822-.804-.307.256-.606.526-.894.809-.707.696-1.354 1.475-1.926 2.333-4.476 6.728-2.652 15.81 4.076 20.287 6.728 4.477 15.699 2.576 20.176-4.152.001.001.413-.68.698-1.422z"/><path d="M36.739 23.471c3.797 2.592 8.718 2.129 11.562-.903.277-.296.536-.615.771-.959.377-.552.672-1.136.894-1.74-.103.196-.217.387-.344.573-.437.64-.984 1.17-1.609 1.591-2.59 1.741-6.547 1.579-9.823-.656-3.638-2.483-5.201-6.68-3.882-9.895.156-.379.349-.745.585-1.092.18-.264.381-.508.596-.735-.568.468-1.079 1.019-1.511 1.653l-.05.078c-2.574 3.868-1.329 9.259 2.811 12.085z"/></g></g></svg>