<svg xmlns="http://www.w3.org/2000/svg" viewBox="0 0 60 60" enable-background="new 0 0 60 60"><g><circle fill="#717171" cx="30" cy="30" r="30"/><path fill="#fff" d="M28.708 19.75c.604.085 2.307.281 3.101.678s1.895-.877 1.202-1.474c-.795-.665-1.387-.857-4.181-1.778-.931-.301-1.66-1.616-3.184-2.218-.487-.192-1.916.111-2.42-.046l-.323-.977c-.331-.652-1.119.289-1.457-.045-.16-.158-.463-.837-.769-1.499.376-.403.617-.935.617-1.53 0-1.244-1.009-2.253-2.253-2.253s-2.253 1.009-2.253 2.253c0 1.149.872 2.06 1.983 2.198.108.417.194.886.243 1.3.1.848-1.264.586-1.368 1.005-.073.294-.163 1.312-.481 1.877-.264.47-1.755.467-2.132.964-.304.402-.442 1.429-.171 1.707-1.531 1.06-3.416 3.446-1.649 3.446 1.531-1.531 7.893-3.77 10.72-4.005 1.289-.108 3.352.197 4.775.397zm14.075 23.517c-7.068-1.767-8.6-4.241-11.309-7.068-3.516-3.669-3.063-14.696-3.063-14.696s-3.063-.618-6.126-.029-7.642 2.606-7.642 2.606.457 7.289 6.347 15.182c5.89 7.893 14.137 8.482 19.791 8.011 5.4-.45 10.72-1.885 10.72-3.299-.001-1.414-1.65 1.06-8.718-.707z"/></g></svg>