<svg xmlns="http://www.w3.org/2000/svg" viewBox="0 0 60 60" enable-background="new 0 0 60 60"><g><path fill="#E2A54E" d="M51.209 51.209c5.827-5.877 8.791-12.93 8.791-21.209s-2.964-15.332-8.791-21.21c-5.877-5.826-12.93-8.79-21.209-8.79s-15.332 2.964-21.21 8.79c-5.826 5.878-8.79 12.931-8.79 21.21s2.964 15.332 8.79 21.209c5.878 5.878 12.931 8.791 21.21 8.791s15.332-2.913 21.209-8.791z"/><path fill="#fff" d="M12.715 19.779c2.098-2.104 4.767-3.155 8.008-3.155 4.336 0 7.506 1.41 9.511 4.23 1.108 1.584 1.702 3.173 1.784 4.768h-5.443c-.346-1.225-.791-2.149-1.333-2.774-.97-1.11-2.407-1.665-4.311-1.665-1.939 0-3.469.783-4.589 2.349-1.119 1.567-1.679 3.783-1.679 6.649 0 2.867.591 5.014 1.772 6.441 1.181 1.428 2.683 2.141 4.504 2.141 1.867 0 3.291-.612 4.27-1.838.541-.659.991-1.647 1.348-2.965h5.408c-.466 2.786-1.658 5.051-3.575 6.797-1.917 1.745-4.374 2.618-7.369 2.618-3.707 0-6.621-1.178-8.742-3.537-2.122-2.369-3.182-5.618-3.182-9.744-.002-4.46 1.205-7.899 3.618-10.315zM42.599 30h-3.149v-3.149h-2.099v3.149h-3.149v2.099h3.149v3.149h2.099v-3.149h3.149zM53.095 30h-3.149v-3.149h-2.099v3.149h-3.149v2.099h3.149v3.149h2.099v-3.149h3.149z"/></g></svg>