<svg xmlns="http://www.w3.org/2000/svg" viewBox="0 0 60 60" enable-background="new 0 0 60 60"><g><path fill="#30C3BA" d="M51.209 51.209c5.827-5.877 8.791-12.93 8.791-21.209s-2.964-15.332-8.791-21.21c-5.877-5.826-12.93-8.79-21.209-8.79s-15.332 2.964-21.21 8.79c-5.826 5.878-8.79 12.931-8.79 21.21s2.964 15.332 8.79 21.209c5.878 5.878 12.931 8.791 21.21 8.791s15.332-2.913 21.209-8.791z"/><path fill="#fff" d="M41.785 18.878c-.657-.547-2.019-1.295-3.443-1.76l-.937-2.697-4.997-4.951c-1.269-1.004-2.131-1.101-3.168-.857l-.15.034-12.303 8.826-7.398 12.209c-.166.57-.203 1.599.965 2.77l4.349 4.431 1.972.721.019.116.045.188.06.254.114.41.012.004c.539 1.666 1.624 3.671 2.612 4.446l6.503 6.478 15.284-.092 1.838-5.811 5.523-1.8.012-15.871-6.912-7.048zm-12.023-8.69c.15-.035.271-.061.384-.061.106 0 .428 0 1.167.577l4.657 4.621.481 1.383-16.349.003 9.66-6.523zm-11.52 26.829l-.014-17.465 5.47 5.536 17.469 17.499-3.765 1.718-19.108-6.99-.052-.298zm21.868 10.744l-13.392.082-6.086-6.055c-.515-.407-1.148-1.413-1.636-2.454l18.467 6.755 3.698-1.645-1.051 3.317zm6.922-7.165l-3.042.992 1.586-3.653-6.521-18.766c.693.318 1.298.664 1.611.923l6.378 6.508-.012 13.996z"/></g></svg>