<svg xmlns="http://www.w3.org/2000/svg" viewBox="0 0 60 60" enable-background="new 0 0 60 60"><g><circle fill="#0A3724" cx="30" cy="30" r="30"/><path fill="#fff" d="M32.467 12.5h-6.239l-.119 10.384c-.965-.254-1.763-.338-2.812-.338-6.756 0-11.121 4.313-11.121 10.951 0 6.893 4.113 10.486 12.003 10.486 2.644 0 4.98-.254 8.296-.888l-.008-30.595zm-6.358 26.071c-.923.127-1.511.169-2.224.169-3.315 0-5.12-1.903-5.12-5.37 0-3.552 1.889-5.581 5.162-5.581.797 0 1.427.084 2.182.338v10.444zm9.391-3.591c0 5.534-.287 7.64-1.189 9.458-.861 1.777-2.213 2.933-5.001 4.254l5.862 2.808c2.787-1.404 4.14-2.684 5.165-4.708 1.107-2.106 1.475-4.543 1.475-9.623l.012-15.408h-6.239l-.085 13.219zm.086-22.48v6.239h6.239v-6.239h-6.239z"/></g></svg>