<svg xmlns="http://www.w3.org/2000/svg" viewBox="0 0 60 60" enable-background="new 0 0 60 60"><g><circle fill="#3882BE" cx="30" cy="30" r="30"/><path fill="#fff" d="M34.071 27.201c2.249 0 4.071-1.823 4.071-4.071v-6.701s-.014-2.729-1.357-4.071c-1.37-1.372-5.428-1.358-5.428-1.358h-6.786s-2.727.698-4.071 2.714c-1.37 2.055-1.357 5.428-1.357 5.428h10.178c.375 0 .679.304.679.679s-.304.679-.679.679h-11.535s-6.786-.085-6.786 9.5l5.429 9.5v-5.513c0-3.748 3.038-6.786 6.786-6.786h10.856zm-10.56-10.179c-.913 0-1.654-.74-1.654-1.654s.74-1.654 1.654-1.654c.913 0 1.654.74 1.654 1.654s-.74 1.654-1.654 1.654zm20.06 3.478v5.429c0 3.748-3.038 6.786-6.786 6.786h-10.856c-2.249 0-4.071 1.823-4.071 4.071v6.786s.014 2.729 1.357 4.071c1.37 1.371 4.071 1.357 4.071 1.357h8.143s2.727-.698 4.071-2.714c1.37-2.055 1.357-5.429 1.357-5.429h-10.178c-.375 0-.679-.304-.679-.679s.304-.679.679-.679h11.536s6.786.085 6.786-9.5l-5.43-9.499zm-7.082 22.478c.914 0 1.654.741 1.654 1.654 0 .914-.741 1.654-1.654 1.654-.914 0-1.654-.741-1.654-1.654 0-.914.74-1.654 1.654-1.654z"/></g></svg>