<svg xmlns="http://www.w3.org/2000/svg" viewBox="0 0 60 60" enable-background="new 0 0 60 60"><g><circle fill="#00B0ED" cx="30" cy="30" r="30"/><path fill="#fff" d="M52 18.594c-1.472.653-3.053 1.094-4.713 1.292 1.694-1.016 2.996-2.624 3.608-4.54-1.586.94-3.342 1.623-5.211 1.991-1.497-1.595-3.63-2.592-5.99-2.592-4.532 0-8.207 3.674-8.207 8.206 0 .643.073 1.27.212 1.87-6.82-.342-12.867-3.609-16.915-8.574-.706 1.212-1.111 2.622-1.111 4.126 0 2.847 1.449 5.359 3.651 6.831-1.345-.043-2.611-.412-3.717-1.027l-.001.103c0 3.976 2.829 7.293 6.583 8.047-.689.188-1.414.288-2.162.288-.529 0-1.043-.051-1.544-.147 1.044 3.26 4.075 5.633 7.666 5.699-2.809 2.201-6.347 3.513-10.192 3.513-.662 0-1.316-.039-1.958-.115 3.632 2.328 7.945 3.687 12.58 3.687 15.095 0 23.349-12.505 23.349-23.349 0-.356-.008-.71-.024-1.062 1.604-1.155 2.996-2.601 4.096-4.247z"/></g><g><path fill="#ED1C24" d="M51.209 51.209c5.827-5.877 8.791-12.93 8.791-21.209s-2.964-15.332-8.791-21.21c-5.877-5.826-12.93-8.79-21.209-8.79s-15.332 2.964-21.21 8.79c-5.826 5.878-8.79 12.931-8.79 21.21s2.964 15.332 8.79 21.209c5.878 5.878 12.931 8.791 21.21 8.791s15.332-2.913 21.209-8.791z"/><path fill="#fff" d="M21.25 14.294c3.424 0 6.21 2.786 6.21 6.21s-2.786 6.21-6.21 6.21-6.21-2.786-6.21-6.21 2.785-6.21 6.21-6.21m0-1.294c-4.144 0-7.503 3.359-7.503 7.503s3.359 7.503 7.503 7.503 7.503-3.359 7.503-7.503-3.36-7.503-7.503-7.503zM46.292 20.503c0-2.063-.75-3.845-2.204-5.299-1.501-1.454-3.236-2.204-5.299-2.204s-3.846.75-5.3 2.204c-1.5 1.454-2.204 3.236-2.204 5.299s.703 3.846 2.204 5.299c1.454 1.454 3.236 2.204 5.3 2.204s3.798-.75 5.299-2.204c1.454-1.453 2.204-3.235 2.204-5.299zM28.753 39.497c0-2.016-.703-3.799-2.204-5.3-1.501-1.5-3.236-2.204-5.347-2.204-2.017 0-3.798.703-5.252 2.204-1.454 1.501-2.204 3.283-2.204 5.3 0 2.11.75 3.846 2.204 5.299 1.454 1.5 3.236 2.204 5.252 2.204 2.11 0 3.845-.704 5.347-2.204 1.5-1.454 2.204-3.189 2.204-5.299zM38.789 33.287c3.424 0 6.21 2.786 6.21 6.21s-2.786 6.21-6.21 6.21-6.21-2.786-6.21-6.21 2.786-6.21 6.21-6.21m0-1.294c-4.144 0-7.503 3.359-7.503 7.503s3.359 7.504 7.503 7.504 7.503-3.359 7.503-7.503-3.359-7.504-7.503-7.504z"/></g><g><circle fill="#5A3776" cx="30" cy="30" r="30"/><path fill="#fff" d="M42.75 17.361h-25.5c-2.408 0-4.25 1.842-4.25 4.25v15.583c0 2.408 1.842 4.25 4.25 4.25h8.5l4.25 5.195 4.25-5.194h8.5c2.408 0 4.25-1.842 4.25-4.25v-15.584c0-2.408-1.842-4.25-4.25-4.25z"/></g><g><circle fill="#0482C4" cx="30" cy="30" r="30"/><path fill="#fff" d="M41.878 11.691c-1.412-2.152-3.837-2.089-6.581-.715-.408.204-.823.441-1.242.699-4.871 3.007-10.389 9.517-13.008 14.916.195.978.232 2.17.225 3.071l-.011.631-.032.713-.031-.58-.021-.287-.02-.16c-.093-.642-.452-2.039-.612-2.648-.461.691-.879 1.341-1.242 1.933.443 1.824.243 4.693.243 4.693s.001-.189-.052-.864c-.048-.597-.56-2.549-.683-3.006-.683.957-1.579 1.795-1.503 2.07.149.533.387 1.781.38 3.008-.016 2.117-.495 3.375-.495 3.375s-.415 1.314-.461 1.564c-.517 1.643-.936 3.186-1.224 4.778-.382 2.107-.344 4.06-.189 5.118l.894-.077c-.1-2.028.312-4.541 1.175-7.335 1.318-4.271 3.704-9.207 6.992-14.138 5.292-7.355 11.352-12.771 16.128-14.853-4.455 2.278-12.119 11.463-14.612 14.956-2.792 3.912-5.038 7.684-6.781 11.407 2.756-3.823 8.206-3.688 8.206-3.688s.803-2.027 3.923-4.782c-1.412-.053-3.737-.119-4.552-.007-1.201.164-1.534.24-1.534.24s4.069-1.193 7.328-1.353c5.867-5.396 12.838-13.426 9.392-18.679z"/></g><g><path fill="#165B78" d="M51.209 51.209c5.827-5.877 8.791-12.93 8.791-21.209s-2.964-15.332-8.791-21.21c-5.877-5.826-12.93-8.79-21.209-8.79s-15.332 2.964-21.21 8.79c-5.826 5.878-8.79 12.931-8.79 21.21s2.964 15.332 8.79 21.209c5.878 5.878 12.931 8.791 21.21 8.791s15.332-2.913 21.209-8.791z"/><path stroke="#64FFFF" stroke-width="1.053" stroke-miterlimit="10" d="M14.32 14.89M42.237 42.807" fill="none"/><path fill="#fff" d="M22.092 17.321h1.501v-2.143h-10.713999999999999v2.143h1.636c1.894 0 1.578.178 1.578 3.23v17.819c0 3.052.316 3.594-1.578 3.594h-1.636v2.143h10.713999999999999v-2.143h-1.501c-1.894 0-1.713-.543-1.713-3.594v-17.818c-.001-3.052-.182-3.231 1.713-3.231z"/><path fill="#fff" d="M37.53 15c-7.31 0-13.235 6.716-13.235 15 0 8.284 5.926 15 13.235 15s13.235-6.716 13.235-15c0-8.284-5.925-15-13.235-15zm0 28.235c-4.386 0-7.941-5.926-7.941-13.235 0-7.31 3.555-13.235 7.941-13.235 4.386 0 7.941 5.926 7.941 13.235 0 7.31-3.555 13.235-7.941 13.235z"/></g><g><path fill="#D41F06" d="M51.209 51.209c5.827-5.877 8.791-12.93 8.791-21.209s-2.964-15.332-8.791-21.21c-5.877-5.826-12.93-8.79-21.209-8.79s-15.332 2.964-21.21 8.79c-5.826 5.878-8.79 12.931-8.79 21.21s2.964 15.332 8.79 21.209c5.878 5.878 12.931 8.791 21.21 8.791s15.332-2.913 21.209-8.791z"/><path fill="#fff" d="M45.084 45.083l.04.035-.028-.191 2.039-26.7-.024.044c.083-2.902-.935-5.686-4.369-6.822 1.818.712 2.103 2.115 2.59 4.179l-9.459-1.46 9.317 7.62-.508.931-11.68.781 3.551 14.066.038-.041-.009.012.357.317 6.291 6.524h-16.027c.344-.173.682-.358 1.018-.545l.013.025c3.022-1.639 5.44-3.609 7.643-5.723l.627-.576-13.833-4.444v.002l-.004-.001 10.317-9.588 2.933-9.318-.062-.044-.058-.009 5.568-3.068.005.001.002-.001-9.939-.045-.135-.095-7.853 2.939c-2.474 2.301-7.275 6.855-7.448 6.94-.156.08-2.658 4.788-4.188 7.67l-.135.255-.284.535.038.106c-.336 1.066-.668 3.026-.668 6.627 0 1.63.152 3.158.33 4.394.061.737.177 1.392.342 1.97.124.6.215.95.215.95l.099-.055c1.482 3.451 4.911 3.605 6.664 3.655l-.016.014 26.687-1.811.001-.013.074-.005-.073.001.001-.038zm-31.606-9.86l-.01-.008-.002.03-1.299 2.376c-.35-2.14-.594-4.726-.385-7.22l1.698 4.817-.002.005zm5.053 11.605l-.045.039-.633-1.478c-1.576-3.916-3.971-9.819-4.342-10.141l-.009-.022 9.088-2.039.077-.072.003.006-4.139 13.707zm26.105-5.022l-1.647-12.296 2.813-5.706-1.166 18.002z"/></g></svg>