<svg xmlns="http://www.w3.org/2000/svg" viewBox="0 0 60 60" enable-background="new 0 0 60 60"><g><circle fill="#FF3B00" cx="30" cy="30" r="30"/><path fill="#fff" d="M38.234 24.208c.106 2.874-2.712 4.615-5.028 1.839-2.175-2.609.454-6.16.738-9.09.356-3.673-2.185-6.824-4.828-8.956 1.456 2.544-.462 5.909-1.994 7.789-1.487 1.825-3.295 3.348-4.935 5.003-1.763 1.78-3.459 3.654-4.908 5.743-2.899 4.181-4.673 9.438-3.368 14.654.954 3.82 3.453 6.623 6.576 8.309 2.077 1.366 1.136-.443.769-.896-1.047-1.294-1.758-2.906-1.762-4.539-.005-3.152 1.843-5.828 4.14-7.585-.276 1.129-.427 2.16.258 3.17.636.938 1.75 1.393 2.803 1.146 2.46-.58 2.573-3.503 1.114-5.207-1.441-1.685-2.836-3.589-2.287-6.035.274-1.226.971-2.373 1.853-3.194-.678 1.927 1.25 3.827 2.517 4.772 2.204 1.64 4.618 2.881 6.644 4.805 2.128 2.022 3.701 4.756 3.385 7.927-.225 2.237-1.375 4.032-2.932 5.345-.412.289-.209.577.526.539 4.768-2.207 8.901-6.629 9.005-12.482.106-5.91-3.642-10.455-8.286-13.057z"/></g></svg>