<svg xmlns="http://www.w3.org/2000/svg" viewBox="0 0 60 60" enable-background="new 0 0 60 60"><g><circle fill="#AA4042" cx="30" cy="30" r="30"/><g fill="#fff"><path d="M37.444 12c-.18.003-.306.025-.337.058-.063.066-.007.379.12.694.208.512.297.579.877.631l.833.082c.102.015.23-.043.284-.13.054-.087.017-.39-.077-.674-.161-.486-.223-.525-1.046-.622-.24-.028-.474-.042-.654-.039zM31.094 13.186c-.342 0-1.443.615-1.537.858-.106.274.958 1.619 1.281 1.619.124 0 .503-.185.843-.41.34-.224.621-.487.621-.588.002-.284-.976-1.479-1.208-1.479zM45.649 14.27c-.374 0-.046.592.53.954.695.437 1.046.532 1.046.289-.001-.165-1.367-1.243-1.576-1.243zM38.658 14.323c-.527.013-1.043.092-1.908.246-1.814.323-4.031 1.025-4.784 1.518-2.855 1.866-5.327 4.623-7.574 8.451-3.204 5.457-4.966 11.831-5.545 20.028l-.101 1.412.063.024h8.007c4.441 0 8.107-.033 8.147-.072.04-.04-.223-.964-.588-2.052-1.182-3.527-1.939-7.646-1.946-10.57-.01-3.843 1.181-8.104 3.045-10.893 1.002-1.499 2.555-3.036 3.074-3.04.199-.001.67-.211 1.05-.467.38-.257 1.18-.616 1.773-.795 1.837-.556 4.315-.239 6.605.838.809.381 1.017.429 1.127.255.281-.441.115-.769-.771-1.503-2.341-1.94-4.874-2.962-8.128-3.286-.551-.055-.951-.088-1.32-.092l-.226-.002zM24.06 18.707c-.347.064-1.504 1.56-1.306 1.739.424.383 1.847 1.228 1.956 1.161.07-.043.335-.384.593-.756.258-.373.467-.742.467-.819 0-.119-1.028-.936-1.653-1.315l-.057-.01zM45.601 18.967c-.123 0-.23.023-.284.077-.085.085-.111.271-.058.41.127.329 1.267.269 1.267-.067 0-.21-.555-.42-.925-.42zM40.98 19.121l-.241.038c-.563.134-.978.348-.978.506 0 .069.142.251.313.405.171.154.308.377.308.491 0 .253.122.259.756.038.558-.194.572-.258.26-1.002-.15-.361-.225-.479-.418-.476zM37.011 22.161c-.192 0-.67.515-.67.723 0 .267.778 1.445.954 1.445.072 0 .242-.174.381-.385.24-.365.232-.42-.159-1.084-.227-.385-.453-.699-.506-.699zM18.722 27.268c-.209 0-.877 1.605-.877 2.105 0 .187 1.709.95 2.192.978.175.01.354-.293.593-1.017.277-.841.299-1.066.135-1.214-.258-.232-1.742-.852-2.043-.852zM34.433 27.331l-.116.096c-.081.127-.148.31-.149.41-.001.099-.041.288-.091.419-.059.154.146.458.583.862.756.699.834.728.968.381.236-.613.083-1.095-.535-1.696-.324-.315-.497-.455-.612-.472h-.048zM33.614 33.334c-.175-.007-.223.129-.222.4.004.867.159 1.084 1.06 1.484 1.183.525 1.281.518 1.176-.091-.143-.824-.169-.86-1.026-1.349-.51-.292-.812-.437-.988-.444zM15.629 37.795c-.261 0-.983 2.336-.838 2.712.078.203.658.3 2.134.356l.713.024.284-1.243c.171-.747.23-1.288.145-1.363-.14-.121-1.964-.486-2.438-.486zM34.756 40.936l-.087.019c-.051.051.027.473.173.935.225.71.331.847.689.901.594.09 2.211.126 2.211.048 0-.323-.66-1.474-.882-1.537-.658-.187-1.779-.377-2.104-.366z"/></g></g></svg>