<svg xmlns="http://www.w3.org/2000/svg" viewBox="0 0 60 60" enable-background="new 0 0 60 60"><g><path fill="#777" d="M51.209 51.209c5.827-5.877 8.791-12.93 8.791-21.209s-2.964-15.332-8.791-21.21c-5.877-5.826-12.93-8.79-21.209-8.79s-15.332 2.964-21.21 8.79c-5.826 5.878-8.79 12.931-8.79 21.21s2.964 15.332 8.79 21.209c5.878 5.878 12.931 8.791 21.21 8.791s15.332-2.913 21.209-8.791z"/><path fill="#fff" d="M26.592 22.697c-.792-1.267-1.843-2.311-3.153-3.132-1.311-.821-2.959-1.231-4.946-1.231-1.527 0-2.93.288-4.211.864-1.282.576-2.391 1.382-3.326 2.419-.936 1.037-1.663 2.261-2.181 3.671-.518 1.411-.778 2.966-.778 4.665.057 1.699.309 3.269.756 4.708.446 1.44 1.116 2.678 2.009 3.715.892 1.037 1.994 1.843 3.304 2.419 1.31.576 2.858.864 4.643.864 2.534 0 4.636-.633 6.306-1.901 1.67-1.267 2.75-2.817 3.24-5.323h-3.628c-.317 1.469-.972 2.227-1.965 2.947-.993.72-2.268 1.08-3.823 1.08-1.209 0-2.261-.201-3.153-.605-.893-.403-1.627-.943-2.203-1.62-.576-.676-.993-1.454-1.253-2.333-.259-.878-.375-2.031-.346-3.01h16.716c.057-1.353-.065-2.555-.367-4.052-.302-1.496-.849-2.878-1.641-4.145zm-14.708 5.183c.057-.864.244-1.677.561-2.441.316-.763.748-1.432 1.296-2.008.547-.576 1.202-1.029 1.965-1.361.763-.331 1.62-.497 2.57-.497.921 0 1.764.166 2.527.497.763.331 1.425.778 1.987 1.339s1.008 1.231 1.339 2.008c.331.778.525 1.598.583 2.462.001.001-12.828.001-12.828.001zm31.102 1.21l8.02-10.723h-4.596l-5.812 8.155-5.587-8.155h-4.911l8.11 11.038-8.74 12.255h4.641l6.488-9.642 6.488 9.642h4.911l-9.012-12.57z"/></g></svg>