<svg xmlns="http://www.w3.org/2000/svg" viewBox="0 0 60 60" enable-background="new 0 0 60 60"><g><circle fill="#67217A" cx="30" cy="30" r="30"/><g fill="#fff"><path d="M9.25 38.199c-.346 0-.64-.124-.885-.372-.243-.248-.365-.544-.365-.889s.122-.643.365-.896c.245-.251.539-.377.885-.377.353 0 .653.126.901.377.248.252.372.55.372.896s-.124.642-.372.89c-.248.247-.548.371-.901.371zM26.858 37.951h-2.321l-8.312-12.874c-.21-.323-.383-.66-.518-1.014h-.068c.06.346.09 1.086.09 2.219v11.668h-1.892v-16.149h2.455l8.087 12.671c.338.525.555.886.653 1.081h.045c-.075-.465-.113-1.257-.113-2.376v-11.376h1.892l.002 16.15zM39.313 37.951h-8.56v-16.15h8.2v1.712h-6.307v5.372h5.834v1.701h-5.834v5.654h6.668l-.001 1.711zM52 23.513h-4.663v14.439h-1.892v-14.439h-4.652v-1.712h11.207v1.712z"/></g></g></svg>