<?xml version="1.0" encoding="utf-8"?>
<!-- Generator: Adobe Illustrator 17.0.0, SVG Export Plug-In . SVG Version: 6.00 Build 0)  -->
<!DOCTYPE svg PUBLIC "-//W3C//DTD SVG 1.1//EN" "http://www.w3.org/Graphics/SVG/1.1/DTD/svg11.dtd">
<svg version="1.1" xmlns="http://www.w3.org/2000/svg" xmlns:xlink="http://www.w3.org/1999/xlink" x="0px" y="0px" width="160px"
	 height="160px" viewBox="0 0 160 160" enable-background="new 0 0 160 160" xml:space="preserve">
<g id="Layer_1">
	<g>
		<g>
			<path fill="#613A82" d="M80,0C35.817,0,0,35.817,0,80c0,44.183,35.817,80,80,80s80-35.817,80-80C160,35.817,124.183,0,80,0z
				 M90.402,33.105c-1.636,4.523-1.875,9.777-1.013,13.192c0.521,2.064,2.112,5.669,3.702,7.938c2.896,4.13,4.733,5.133,8.45,7.327
				c1.675,0.987,3.471,1.779,4.248,1.997c3.525,1.017,10.97,3.701,22.968-4.312c-1.39,3.128-9.394,9.039-12.928,9.778
				c-13.996,2.924-22.959-3.589-27.653-10.998c-0.699-1.108-1.99-4.131-2.221-4.9C84.134,47.05,84.971,37.861,90.402,33.105z
				 M126.904,105.895c-7.573,14.473-20.993,23.352-40.135,23.744c-8.949,0.181-17.477-2.072-23.045-4.523
				c-12.022-5.299-22.131-15.128-27.654-25.629c-7.92-15.054-9.348-35.997,7.121-51.638c0.253,0-1.998,3.393-1.744,3.393
				l-0.453,1.446c-11.869,36.464,24.695,67.709,60.238,64.136c8.542-0.859,19.434-5.45,26.117-12.061L126.904,105.895z
				 M92.015,97.224C76.284,95.16,61.296,79.622,59.753,64.056c-1.129-11.329,2.895-18.091,9.525-26.294
				c-2.304,4.29-3.165,7.599-3.379,9.71c-2.52,24.507,19.949,42.087,39.943,42.215c8.941,0.061,18.282-4.041,23.813-9.799
				C124.816,91.941,110.804,99.69,92.015,97.224z"/>
		</g>
	</g>
</g>
<g id="Layer_2">
</g>
</svg>
