<?xml version="1.0" encoding="utf-8"?>
<!-- Generator: Adobe Illustrator 17.0.0, SVG Export Plug-In . SVG Version: 6.00 Build 0)  -->
<!DOCTYPE svg PUBLIC "-//W3C//DTD SVG 1.1//EN" "http://www.w3.org/Graphics/SVG/1.1/DTD/svg11.dtd">
<svg version="1.1" xmlns="http://www.w3.org/2000/svg" xmlns:xlink="http://www.w3.org/1999/xlink" x="0px" y="0px" width="160px"
	 height="160px" viewBox="0 0 160 160" enable-background="new 0 0 160 160" xml:space="preserve">
<g id="Layer_1">
	<path fill="#613A82" d="M80,0C35.817,0,0,35.817,0,80c0,44.183,35.817,80,80,80c44.183,0,80-35.817,80-80
		C160,35.817,124.183,0,80,0z M98,126.167h-4v6H66v-6h-4v-6.333h36V126.167z M98,111.833H62v-5h36V111.833z M105.645,78.976
		l-7.221,19.857H86v-25h-6v15.257l-8.718-8.717l-4.243,4.243L80,97.576v1.257H61.576l-7.221-19.857
		C50.364,73.638,48,67.012,48,59.833c0-17.673,14.327-32,32-32c17.673,0,32,14.327,32,32C112,67.012,109.636,73.638,105.645,78.976z
		"/>
</g>
<g id="Layer_2">
</g>
</svg>
