<?xml version="1.0" encoding="utf-8"?>
<!-- Generator: Adobe Illustrator 17.0.0, SVG Export Plug-In . SVG Version: 6.00 Build 0)  -->
<!DOCTYPE svg PUBLIC "-//W3C//DTD SVG 1.1//EN" "http://www.w3.org/Graphics/SVG/1.1/DTD/svg11.dtd">
<svg version="1.1" xmlns="http://www.w3.org/2000/svg" xmlns:xlink="http://www.w3.org/1999/xlink" x="0px" y="0px" width="160px"
	 height="160px" viewBox="0 0 160 160" enable-background="new 0 0 160 160" xml:space="preserve">
<g id="Layer_1">
	<path fill="#613A82" d="M132.597,95.26c4.874-1.749,7.519-11.32,1.247-14.718c7.777-3.719,4.111-12.102,0.493-15.4
		c-8.095-7.374-31.185-3.953-42.097-6.627c-8.565-12.775,11-32.319-2.188-44.287c-5.18-4.695-9.204,1.198-8.821,4.459
		c0.398,3.479-3.431,8.525-3.688,11.965c-0.511,7.418-5.615,13.298-7.908,19.909c-3.098,8.922-8.65,15.471-17.111,19.7l-0.004-1.054
		c-0.009-3.394-2.444-6.146-5.436-6.14l-21.945,0.057c-2.992,0.006-5.421,2.772-5.414,6.164l0.113,47.685
		c0.01,3.396,2.451,6.149,5.445,6.142l21.944-0.055c2.993-0.008,5.416-2.773,5.409-6.168l-0.006-2.252
		c8.032,0.061,14.431-0.022,15.943-0.419c12.125,4.184,21.515,7.541,29.244,9.26c3.796,0.836,11.69,0.147,18.365-0.881
		c8.42-1.282,12.427-7.034,9.596-13.249C132.693,109.338,138.908,102.094,132.597,95.26z"/>
</g>
<g id="Layer_2">
</g>
</svg>
