<?xml version="1.0" encoding="utf-8"?>
<!-- Generator: Adobe Illustrator 17.0.0, SVG Export Plug-In . SVG Version: 6.00 Build 0)  -->
<!DOCTYPE svg PUBLIC "-//W3C//DTD SVG 1.1//EN" "http://www.w3.org/Graphics/SVG/1.1/DTD/svg11.dtd">
<svg version="1.1" xmlns="http://www.w3.org/2000/svg" xmlns:xlink="http://www.w3.org/1999/xlink" x="0px" y="0px" width="160px"
	 height="160px" viewBox="0 0 160 160" enable-background="new 0 0 160 160" xml:space="preserve">
<g id="Layer_1">
	<g>
		<g>
			<path fill="#613A82" d="M-80-159.648c-44.183,0-80,35.812-80,79.989c0,44.177,35.817,79.989,80,79.989
				c44.183,0,80-35.812,80-79.989C0-123.836-35.817-159.648-80-159.648z M-65.951-18.753c8.638-3.504,16.34-10.447,17.39-20.429
				c0.968-9.209-3.826-17.149-10.317-23.021c-6.173-5.586-13.536-9.189-20.249-13.956c-3.869-2.746-9.743-8.262-7.675-13.856
				c-2.689,2.384-4.812,5.718-5.65,9.276c-1.673,7.1,2.579,12.634,6.974,17.528c4.444,4.945,4.1,13.432-3.397,15.121
				c-3.208,0.719-6.605-0.604-8.546-3.33c-2.087-2.931-1.627-5.929-0.784-9.206c-7.008,5.107-12.64,12.878-12.622,22.034
				c0.016,8.396,6.804,16.601,14.058,19.83c-14.378-3.407-27.111-13.042-31.083-28.18c-3.976-15.148,1.435-30.417,10.27-42.557
				c4.416-6.066,9.585-11.508,14.958-16.678c5.003-4.811,10.514-9.233,15.046-14.53c4.673-5.462,10.516-15.235,6.082-22.621
				c8.051,6.194,14.544,16.544,13.458,27.207c-0.867,8.507-7.065,17.169-0.993,25.203c4.755,6.288,15.649,3.005,15.325-5.338
				c14.156,7.557,25.582,20.758,25.262,37.91C-28.83-37.493-47.696-22.903-65.951-18.753z"/>
		</g>
	</g>
	<g>
		<g>
			<path fill="#613A82" d="M83.913,35.269c-1.578-0.162-3.167-0.257-4.779-0.262c-1.621-0.003-3.203,0.086-4.79,0.24
				c-4.341,4.729-7.911,10.405-10.526,16.721l30.549,0.072C91.781,45.714,88.232,40.018,83.913,35.269z M62.036,38.336
				c-7.146,2.923-13.376,7.643-18.137,13.587l11.341,0.026C57.013,47.071,59.325,42.529,62.036,38.336z M94.261,100.037
				c2.052-4.975,3.513-10.333,4.225-15.995l-38.921-0.09c0.677,5.664,2.106,11.029,4.144,16.013L94.261,100.037z M107.039,76.064
				l16.797,0.042c-0.49-5.704-2.073-11.101-4.495-16.013l-14.129-0.034C106.375,65.182,107.051,70.512,107.039,76.064z
				 M114.282,52.084c-4.735-5.965-10.935-10.707-18.072-13.659c2.7,4.196,4.982,8.747,6.724,13.635L114.282,52.084z M96.981,60.041
				l-35.818-0.085c-1.322,5.08-2.108,10.422-2.121,15.997l39.999,0.093C99.051,70.47,98.281,65.125,96.981,60.041z M52.934,59.936
				l-14.12-0.032c-2.451,4.901-4.047,10.292-4.567,15.993l16.79,0.039C51.053,70.381,51.755,65.056,52.934,59.936z M87.529,124.175
				c10.717-2.047,20.064-7.895,26.626-16.094l-14.85-0.036C96.172,114.143,92.184,119.575,87.529,124.175z M102.786,100.054
				l16.464,0.041c2.445-4.9,4.055-10.284,4.563-15.996l-17.259-0.04C105.929,89.672,104.61,95.011,102.786,100.054z M80.025,0
				c-44.183,0-80,35.817-80,80s35.817,80,80,80s80-35.817,80-80S124.208,0,80.025,0z M78.894,139.996
				c-33.128-0.078-59.943-26.99-59.866-60.136c0.078-33.141,27.009-59.932,60.141-59.853c33.132,0.075,59.928,26.993,59.854,60.131
				C138.948,113.283,112.028,140.073,78.894,139.996z M67.648,107.971c3.094,5.181,6.904,9.747,11.289,13.457
				c4.399-3.69,8.229-8.239,11.345-13.404L67.648,107.971z M43.769,107.917c6.53,8.229,15.862,14.128,26.563,16.217
				c-4.631-4.621-8.599-10.073-11.71-16.183L43.769,107.917z M51.481,83.934l-17.253-0.041c0.495,5.713,2.067,11.104,4.495,16.013
				l16.459,0.036C53.378,94.89,52.088,89.548,51.481,83.934z"/>
		</g>
	</g>
</g>
<g id="Layer_2">
</g>
</svg>
