<svg xmlns="http://www.w3.org/2000/svg" xmlns:xlink="http://www.w3.org/1999/xlink" version="1.1" height="150" width="150" viewBox="0 0 150 150"><defs id="SvgjsDefs1010"/><g xmlns:name="monogram_container_inversefill" id="SvgjsG1012" transform="translate(15,20) scale(2.3)" rel="inversefill" name="monogram_container" fill="#4fc08d"><g id="46bfeca5-5fe1-46b7-b39f-b07f8c93ed2d">  <g id="19289a54-b124-48e4-a4f1-c06206842ce4">  <path d="M179.18,94.3a41.74,41.74,0,0,1-13.71,4.27,15.92,15.92,0,0,1-9.3-1.56,12.77,12.77,0,0,1-5.39-5.84,22.19,22.19,0,0,1-2-8.58,37,37,0,0,1,.94-9.78,41.53,41.53,0,0,1,3.36-9.43,29.35,29.35,0,0,1,5.29-7.53,14.94,14.94,0,0,1,6.71-4.1,12.74,12.74,0,0,1,3.5-.31,28.86,28.86,0,0,1,4.3.5c1.53,0.28,3.14.67,4.78,1.15s3.3,1,4.94,1.63,3.24,1.27,4.77,2,3,1.4,4.28,2.12a37.53,37.53,0,0,1,3.46,2.11,14.17,14.17,0,0,1,2.33,2,21.77,21.77,0,0,1,3.33,4.65,12.45,12.45,0,0,1,1.37,4.39,10.33,10.33,0,0,1-.41,4.16,13.77,13.77,0,0,1-2,3.95,23.78,23.78,0,0,1-3.44,3.77,43,43,0,0,1-4.69,3.62c-1.75,1.19-3.68,2.35-5.76,3.5S181.53,93.17,179.18,94.3Z" transform="translate(-148.77 -51.42)"/> </g>   </g></g><g xmlns:name="symbol_mainfill" id="SvgjsG1013" rel="mainfill" name="monogram" fill="#36495d" transform="translate(50,35) scale(1.2)"><path d="M15.372 58.865 q-0.427 0 -0.488 -0.122 q-0.793 -1.342 -1.586 -2.806 q-0.061 -1.403 -0.6405 -2.5925 t-1.2505 -2.4095 q-0.427 -0.854 -0.427 -1.525 q0.061 -0.732 -0.3965 -1.2505 t-0.6405 -1.1895 t-0.183 -1.342 t-0.488 -1.281 q-0.488 -0.488 -0.427 -0.915 q0.061 -0.915 -0.366 -1.6165 t-0.732 -1.4335 q-0.244 -0.61 -0.244 -1.3115 t-0.488 -1.2505 q-0.488 -0.61 -0.427 -1.3115 t-0.244 -1.3115 t-0.6405 -1.159 t-0.3355 -1.342 q0.061 -0.244 -0.0305 -0.488 t-0.2135 -0.549 q-0.122 -0.366 -0.3355 -0.7015 t-0.3355 -0.7625 q-0.122 -0.366 -0.1525 -0.7625 t-0.0305 -0.7625 q-0.305 -0.427 -0.5185 -0.7625 t-0.4575 -0.7015 q-0.061 -0.427 -0.061 -0.8235 t-0.061 -0.8235 q-0.366 -0.793 -0.915 -1.5555 t-0.061 -1.7385 q-0.366 -0.488 -0.61 -0.8845 t-0.549 -0.8845 q0 -0.305 -0.0305 -0.7015 t0.0915 -0.7625 q0.122 -0.915 1.037 -1.037 q0.244 0 0.4575 -0.183 t0.3965 -0.305 q-0.244 -0.305 -0.549 -0.3965 t-0.6405 -0.0915 t-0.7015 -0.0305 t-0.671 -0.2135 q-0.61 -0.488 -0.549 -1.159 l0.122 -1.342 q0.244 -0.122 0.4575 -0.3355 t0.4575 -0.2135 q1.22 -0.061 2.44 -0.0305 t2.379 0.0305 q0.244 0.305 0.4575 0.488 t0.2745 0.427 q0.122 0.671 0.488 0.915 t1.037 0.305 q0.305 0 0.549 0.0305 t0.549 0.0305 q0.244 0.305 0.366 0.5185 t0.183 0.427 t0.122 0.5795 t0.122 0.976 q0.366 0.549 0.976 1.525 q0.061 0.549 0.061 1.22 t0.061 1.403 q0.671 1.403 1.4335 2.806 t0.8235 3.05 q0.427 0.61 0.7625 1.159 t0.2135 1.342 q-0.061 0.61 0.305 1.037 t0.549 0.915 t0.2135 1.037 t0.1525 1.098 q0.244 0.366 0.4575 0.7015 t0.3965 0.7015 q0 0.61 -0.1525 1.0065 t-0.8845 0.5185 q-0.244 0.061 -0.3965 0.244 t-0.3965 0.305 q0.854 0.427 1.3115 0.671 t0.7625 0.5185 t0.488 0.6405 l0.488 0.976 q0.305 0.488 0.5185 0.9455 t0.5185 0.9455 q0.244 1.037 0.122 2.1655 t0.366 2.1655 q0.793 -0.976 1.1895 -1.7995 t0.5795 -1.7385 q0.061 -0.305 0.0915 -0.549 t0.1525 -0.549 q0.122 -0.366 0.366 -0.7015 t0.427 -0.7015 q0.061 -0.671 0.0915 -1.342 t0.0915 -1.281 q0.305 -0.549 0.61 -1.0675 t0.305 -1.0065 q0.122 -0.854 0.488 -1.5555 t0.61 -1.4945 q0.183 -0.793 0.3355 -1.5555 t0.6405 -1.4945 q0.183 -0.244 0.244 -0.5795 t0.061 -0.7015 t0.061 -0.671 t0.305 -0.61 q0.488 -0.61 0.549 -1.281 t0.183 -1.342 q0.122 -0.366 0.3965 -0.732 t0.5795 -0.915 q0 -0.488 0.0305 -1.1285 t0.0915 -1.4335 q0.488 -0.915 0.9455 -1.891 t1.1285 -2.196 q0 -0.549 0.061 -1.281 t0.122 -1.586 q0.244 -0.122 0.4575 -0.3355 t0.4575 -0.2135 q2.074 -0.061 4.1175 -0.061 l4.0565 0 q0.793 0.549 0.671 1.22 t-0.061 1.281 l-0.915 0.732 q-0.915 0 -1.8605 0.0305 t-1.9215 0.0915 q-0.122 0 -0.427 0.305 q0.122 0.183 0.305 0.3355 t0.305 0.3355 l2.684 0 q0.427 0.305 0.6405 0.6405 t0.0915 0.7015 q-0.488 1.037 -1.0065 1.9825 t-1.0675 1.9825 q0 0.61 -0.0305 1.281 t-0.0915 1.342 q-0.305 0.61 -0.7015 1.159 t-0.3355 1.281 q0.122 0.793 -0.3355 1.3115 t-0.6405 1.1895 q-0.122 0.671 -0.5185 1.22 t-0.7015 1.22 l0 2.867 q0 0.061 -0.427 0.3965 t-0.549 0.8235 q-0.244 0.976 -0.915 1.952 q-0.061 0.122 -0.1525 0.244 t-0.0915 0.244 q0.183 0.61 0 1.098 t-0.4575 0.976 t-0.5185 0.976 t-0.183 1.037 q0.061 0.793 -0.366 1.3115 t-0.732 1.1895 l0 1.525 q-0.305 0.671 -0.7625 1.1895 t-0.3355 1.3115 q0.122 0.671 -0.183 1.037 q-1.098 1.342 -0.976 3.05 q-1.037 1.525 -1.22 3.599 q-0.488 0.671 -0.8235 1.342 t-0.3965 1.464 l-6.954 0 q-0.305 0 -0.549 -0.061 t-0.549 -0.183 q-0.488 -0.366 -0.4575 -0.915 t-0.0915 -1.037 l1.525 0 q0.671 -0.61 1.3725 -0.8845 t1.3725 -0.6405 l-0.915 -1.83 q0.183 -0.122 0.3965 -0.183 t0.3965 -0.183 q0.061 0 0.061 -0.122 t-0.061 -0.183 q-0.244 -0.244 -0.366 -0.061 t-0.366 0.854 l-1.525 0 q-0.61 0.671 -0.8235 1.464 t-0.8845 1.342 q-0.061 0.061 -0.0305 0.2135 t-0.0305 0.2745 z M6.466 18.726999999999997 q-0.549 -0.793 -1.342 -0.61 q-0.671 0.183 -0.427 0.61 q0.122 0.427 0.366 0.305 q0.366 -0.061 0.7015 -0.122 t0.7015 -0.183 z M15.555 52.765 q0.244 0.122 0.427 0.244 t0.427 0.244 q0.305 0.122 0.549 0 t0.305 -0.427 q0 -0.244 -0.244 -0.3965 t-0.549 -0.0915 q-0.244 0.061 -0.4575 0.183 t-0.4575 0.244 z M31.171 32.696 q-0.183 0.183 -0.183 0.305 q0.122 0.305 0.305 0.305 q0.305 0 0.305 -0.305 q0.122 -0.488 -0.427 -0.305 z M6.344 28.548000000000002 q-0.122 -0.122 -0.183 -0.244 t-0.122 -0.122 q-0.854 0.305 -0.061 0.671 q0.061 0.061 0.1525 -0.061 t0.2135 -0.244 z M33.611 22.265 q0.244 -0.244 0.366 -0.305 q-0.122 -0.122 -0.183 -0.2135 t-0.183 -0.1525 q-0.488 0 -0.305 0.488 q0.061 0.061 0.305 0.183 z"/></g></svg>