<svg xmlns="http://www.w3.org/2000/svg" version="1.1" xmlns:xlink="http://www.w3.org/1999/xlink" xmlns:svgjs="http://svgjs.com/svgjs" height="136.71399688720703" width="381.3479919433594"><defs id="SvgjsDefs1010"></defs><g id="SvgjsG1011" rel="mainfill" name="main_text" xmlns:name="mainText_mainfill" fill="#ffffff" transform="translate(0.10800045728683472,100.71399688720703)"><path d="M23.076 11.015999999999998 l-10.224 24.552 c-0.18 0.432 -0.36 0.432 -0.72 0.432 l-1.152 0 c-0.396 0 -0.54 -0.036 -0.684 -0.432 l-10.224 -24.552 c-0.18 -0.396 0 -0.792 0.54 -0.792 l1.836 0 c0.684 0 0.756 0.504 1.476 2.268 l7.632 18.864 l7.668 -18.864 c0.72 -1.764 0.756 -2.268 1.476 -2.268 l1.836 0 c0.36 0 0.612 0.18 0.612 0.468 c0 0.108 -0.036 0.216 -0.072 0.324 z M47.052 9.792000000000002 c0.324 0 0.684 0.18 0.684 0.54 l0 15.084 c0 5.94 -4.68 10.584 -10.62 10.584 c-5.724 0 -10.548 -4.824 -10.548 -10.584 l0 -15.084 c0 -0.288 0.216 -0.54 0.504 -0.54 l1.944 0 c0.288 0 0.576 0.252 0.576 0.54 l0 14.616 c0 4.572 3.06 8.172 7.668 8.172 c4.752 0 7.488 -3.744 7.488 -8.172 l0 -14.616 c0 -0.324 0.288 -0.54 0.612 -0.54 l1.692 0 z M51.73199999999999 36 c-0.396 0 -0.576 -0.18 -0.576 -0.576 l0 -24.696 c0 -0.36 0.216 -0.504 0.576 -0.504 l17.028 0 c0.36 0 0.54 0.18 0.54 0.54 l0 1.8 c0 0.432 -0.18 0.648 -0.576 0.648 l-14.544 0 l0 4.32 l11.556 0 c0.324 0 0.54 0.288 0.54 0.612 l0 1.8 c0 0.324 -0.216 0.612 -0.54 0.612 l-11.556 0 l0 4.464 l11.556 0 c0.324 0 0.54 0.252 0.54 0.576 l0 1.836 c0 0.288 -0.216 0.612 -0.54 0.612 l-11.556 0 l0 4.968 l14.436 0 c0.36 0 0.648 0.216 0.648 0.612 l0 1.764 c0 0.396 -0.216 0.612 -0.612 0.612 l-16.92 0 z  M86.25599999999999 36 c-0.396 0 -0.576 -0.18 -0.576 -0.576 l0 -24.696 c0 -0.36 0.216 -0.504 0.576 -0.504 l17.028 0 c0.36 0 0.54 0.18 0.54 0.54 l0 1.8 c0 0.432 -0.18 0.648 -0.576 0.648 l-14.544 0 l0 4.32 l11.556 0 c0.324 0 0.54 0.288 0.54 0.612 l0 1.8 c0 0.324 -0.216 0.612 -0.54 0.612 l-11.556 0 l0 4.464 l11.556 0 c0.324 0 0.54 0.252 0.54 0.576 l0 1.836 c0 0.288 -0.216 0.612 -0.54 0.612 l-11.556 0 l0 4.968 l14.436 0 c0.36 0 0.648 0.216 0.648 0.612 l0 1.764 c0 0.396 -0.216 0.612 -0.612 0.612 l-16.92 0 z M122.832 36 l-15.048 0 c-0.36 0 -0.54 -0.18 -0.54 -0.54 l0 -24.696 c0 -0.396 0.252 -0.54 0.576 -0.54 l1.836 0 c0.36 0 0.54 0.216 0.54 0.54 l0 22.248 l12.636 0 c0.36 0 0.54 0.324 0.54 0.612 l0 1.836 c-0.036 0.324 -0.216 0.504 -0.54 0.54 z M127.368 36 c-0.396 0 -0.576 -0.18 -0.576 -0.576 l0 -24.696 c0 -0.36 0.216 -0.504 0.576 -0.504 l17.028 0 c0.36 0 0.54 0.18 0.54 0.54 l0 1.8 c0 0.432 -0.18 0.648 -0.576 0.648 l-14.544 0 l0 4.32 l11.556 0 c0.324 0 0.54 0.288 0.54 0.612 l0 1.8 c0 0.324 -0.216 0.612 -0.54 0.612 l-11.556 0 l0 4.464 l11.556 0 c0.324 0 0.54 0.252 0.54 0.576 l0 1.836 c0 0.288 -0.216 0.612 -0.54 0.612 l-11.556 0 l0 4.968 l14.436 0 c0.36 0 0.648 0.216 0.648 0.612 l0 1.764 c0 0.396 -0.216 0.612 -0.612 0.612 l-16.92 0 z M164.664 19.008 l3.456 -8.352 c0.18 -0.396 0.324 -0.432 0.72 -0.432 l1.152 0 c0.396 0 0.54 0.036 0.684 0.432 l10.224 24.552 c0.036 0.108 0.072 0.216 0.072 0.324 c0 0.288 -0.216 0.468 -0.576 0.468 l-1.836 0 c-0.72 0 -0.792 -0.504 -1.476 -2.304 l-7.668 -18.828 l-7.668 18.828 c-0.72 1.8 -0.756 2.304 -1.476 2.304 l-1.836 0 c-0.396 0 -0.612 -0.18 -0.612 -0.468 c0 -0.108 0.036 -0.216 0.072 -0.324 l5.22 -12.492 c-1.08 -2.628 -2.16 -5.256 -3.168 -7.884 l-7.668 18.864 c-0.72 1.8 -0.792 2.304 -1.476 2.304 l-1.836 0 c-0.396 0 -0.612 -0.18 -0.612 -0.468 c0 -0.108 0 -0.216 0.072 -0.324 l10.224 -24.588 c0.144 -0.324 0.324 -0.396 0.684 -0.396 l1.152 0 c0.396 0 0.54 0 0.72 0.432 z M184.968 36 c-0.396 0 -0.576 -0.18 -0.576 -0.576 l0 -24.696 c0 -0.36 0.216 -0.504 0.576 -0.504 l17.028 0 c0.36 0 0.54 0.18 0.54 0.54 l0 1.8 c0 0.432 -0.18 0.648 -0.576 0.648 l-14.544 0 l0 4.32 l11.556 0 c0.324 0 0.54 0.288 0.54 0.612 l0 1.8 c0 0.324 -0.216 0.612 -0.54 0.612 l-11.556 0 l0 4.464 l11.556 0 c0.324 0 0.54 0.252 0.54 0.576 l0 1.836 c0 0.288 -0.216 0.612 -0.54 0.612 l-11.556 0 l0 4.968 l14.436 0 c0.36 0 0.648 0.216 0.648 0.612 l0 1.764 c0 0.396 -0.216 0.612 -0.612 0.612 l-16.92 0 z M227.196 10.187999999999999 l0.18 0 c0.54 0 0.684 0.252 0.684 0.576 l-0.18 24.696 c0 0.36 -0.216 0.54 -0.648 0.54 l-2.304 0 l-15.984 -21.6 l0 13.392 l6.3 0.036 c0.324 0 0.54 0.252 0.54 0.576 l0 1.836 c0 0.324 -0.216 0.612 -0.576 0.612 l-8.712 -0.036 c-0.36 0 -0.54 -0.18 -0.54 -0.468 l0 -19.692 c0 -0.324 0.252 -0.576 0.612 -0.576 l2.484 0 c0.252 0 0.432 0.108 0.576 0.288 l15.3 20.628 l0.144 -20.268 c0 -0.288 0.252 -0.54 0.54 -0.54 l1.584 0 z M218.37599999999998 32.976 c0.324 0 0.54 0.252 0.54 0.576 l0 1.836 c0 0.324 -0.252 0.612 -0.576 0.612 l-11.844 0 c-0.324 0 -0.54 -0.18 -0.54 -0.54 l0 -1.836 c0 -0.36 0.18 -0.648 0.576 -0.648 l11.844 0 z M245.44799999999998 10.224 c0.324 0 0.576 0.216 0.648 0.54 l0 1.764 c0 0.432 -0.252 0.684 -0.648 0.684 l-7.56 0 l0 22.212 c0 0.288 -0.252 0.576 -0.612 0.576 l-1.8 0 c-0.324 0 -0.576 -0.252 -0.576 -0.576 l0 -24.66 c0 -0.324 0.252 -0.54 0.576 -0.54 l9.972 0 z  M274.86 10.655999999999999 c0 0 10.584 24.444 10.584 24.48 c0.108 0.252 0.108 0.324 0.108 0.432 c0 0.288 -0.216 0.432 -0.612 0.432 l-21.78 0 c-0.396 0 -0.684 -0.216 -0.684 -0.54 c0 -0.108 0 -0.216 0.072 -0.324 l10.728 -24.48 c0.18 -0.36 0.36 -0.468 0.756 -0.468 l0.108 0 c0.468 0 0.54 0.108 0.72 0.468 z M274.068 15.803999999999998 l-7.308 17.136 l14.58 0 z M289.548 36 c-0.324 0 -0.576 -0.144 -0.576 -0.504 l0 -24.66 c0 -0.396 0.18 -0.612 0.576 -0.612 l8.28 0 c7.128 0 12.996 5.652 12.996 12.924 c0 7.416 -6.192 12.852 -12.996 12.852 l-8.28 0 z M291.924 13.175999999999998 l0 19.872 l5.796 0 c5.76 0 10.116 -4.572 10.116 -10.188 c0 -5.76 -4.608 -9.684 -10.008 -9.684 l-5.904 0 z M330.55199999999996 19.008 l3.456 -8.352 c0.18 -0.396 0.324 -0.432 0.72 -0.432 l1.152 0 c0.396 0 0.54 0.036 0.684 0.432 l10.224 24.552 c0.036 0.108 0.072 0.216 0.072 0.324 c0 0.288 -0.216 0.468 -0.576 0.468 l-1.836 0 c-0.72 0 -0.792 -0.504 -1.476 -2.304 l-7.668 -18.828 l-7.668 18.828 c-0.72 1.8 -0.756 2.304 -1.476 2.304 l-1.836 0 c-0.396 0 -0.612 -0.18 -0.612 -0.468 c0 -0.108 0.036 -0.216 0.072 -0.324 l5.22 -12.492 c-1.08 -2.628 -2.16 -5.256 -3.168 -7.884 l-7.668 18.864 c-0.72 1.8 -0.792 2.304 -1.476 2.304 l-1.836 0 c-0.396 0 -0.612 -0.18 -0.612 -0.468 c0 -0.108 0 -0.216 0.072 -0.324 l10.224 -24.588 c0.144 -0.324 0.324 -0.396 0.684 -0.396 l1.152 0 c0.396 0 0.54 0 0.72 0.432 z M350.82 10.224 l1.872 0 c0.468 0 0.612 0.252 0.612 0.576 l0 24.66 c0 0.36 -0.252 0.54 -0.612 0.54 l-1.872 0 c-0.36 0 -0.54 -0.18 -0.54 -0.54 l0 -24.696 c0 -0.324 0.252 -0.54 0.54 -0.54 z M380.376 10.187999999999999 l0.18 0 c0.54 0 0.684 0.252 0.684 0.576 l-0.18 24.696 c0 0.36 -0.216 0.54 -0.648 0.54 l-2.304 0 l-15.984 -21.6 l0 13.392 l6.3 0.036 c0.324 0 0.54 0.252 0.54 0.576 l0 1.836 c0 0.324 -0.216 0.612 -0.576 0.612 l-8.712 -0.036 c-0.36 0 -0.54 -0.18 -0.54 -0.468 l0 -19.692 c0 -0.324 0.252 -0.576 0.612 -0.576 l2.484 0 c0.252 0 0.432 0.108 0.576 0.288 l15.3 20.628 l0.144 -20.268 c0 -0.288 0.252 -0.54 0.54 -0.54 l1.584 0 z M371.556 32.976 c0.324 0 0.54 0.252 0.54 0.576 l0 1.836 c0 0.324 -0.252 0.612 -0.576 0.612 l-11.844 0 c-0.324 0 -0.54 -0.18 -0.54 -0.54 l0 -1.836 c0 -0.36 0.18 -0.648 0.576 -0.648 l11.844 0 z"></path></g><g id="SvgjsG1012" transform="translate(137.39658810011127,0) scale(1.9946735035162875)" rel="inversefill" name="monogram_container" xmlns:name="monogram_container_inversefill" fill="#ffffff"><g id="46bfeca5-5fe1-46b7-b39f-b07f8c93ed2d">  <g id="19289a54-b124-48e4-a4f1-c06206842ce4">  <path d="M179.18,94.3a41.74,41.74,0,0,1-13.71,4.27,15.92,15.92,0,0,1-9.3-1.56,12.77,12.77,0,0,1-5.39-5.84,22.19,22.19,0,0,1-2-8.58,37,37,0,0,1,.94-9.78,41.53,41.53,0,0,1,3.36-9.43,29.35,29.35,0,0,1,5.29-7.53,14.94,14.94,0,0,1,6.71-4.1,12.74,12.74,0,0,1,3.5-.31,28.86,28.86,0,0,1,4.3.5c1.53,0.28,3.14.67,4.78,1.15s3.3,1,4.94,1.63,3.24,1.27,4.77,2,3,1.4,4.28,2.12a37.53,37.53,0,0,1,3.46,2.11,14.17,14.17,0,0,1,2.33,2,21.77,21.77,0,0,1,3.33,4.65,12.45,12.45,0,0,1,1.37,4.39,10.33,10.33,0,0,1-.41,4.16,13.77,13.77,0,0,1-2,3.95,23.78,23.78,0,0,1-3.44,3.77,43,43,0,0,1-4.69,3.62c-1.75,1.19-3.68,2.35-5.76,3.5S181.53,93.17,179.18,94.3Z" transform="translate(-148.77 -51.42)"></path> </g>   </g></g><g id="SvgjsG1013" rel="mainfill" name="monogram" xmlns:name="symbol_mainfill" fill="#32495d" transform="translate(171.28969297475192,10.420991897583008)"><path d="M15.372 58.865 q-0.427 0 -0.488 -0.122 q-0.793 -1.342 -1.586 -2.806 q-0.061 -1.403 -0.6405 -2.5925 t-1.2505 -2.4095 q-0.427 -0.854 -0.427 -1.525 q0.061 -0.732 -0.3965 -1.2505 t-0.6405 -1.1895 t-0.183 -1.342 t-0.488 -1.281 q-0.488 -0.488 -0.427 -0.915 q0.061 -0.915 -0.366 -1.6165 t-0.732 -1.4335 q-0.244 -0.61 -0.244 -1.3115 t-0.488 -1.2505 q-0.488 -0.61 -0.427 -1.3115 t-0.244 -1.3115 t-0.6405 -1.159 t-0.3355 -1.342 q0.061 -0.244 -0.0305 -0.488 t-0.2135 -0.549 q-0.122 -0.366 -0.3355 -0.7015 t-0.3355 -0.7625 q-0.122 -0.366 -0.1525 -0.7625 t-0.0305 -0.7625 q-0.305 -0.427 -0.5185 -0.7625 t-0.4575 -0.7015 q-0.061 -0.427 -0.061 -0.8235 t-0.061 -0.8235 q-0.366 -0.793 -0.915 -1.5555 t-0.061 -1.7385 q-0.366 -0.488 -0.61 -0.8845 t-0.549 -0.8845 q0 -0.305 -0.0305 -0.7015 t0.0915 -0.7625 q0.122 -0.915 1.037 -1.037 q0.244 0 0.4575 -0.183 t0.3965 -0.305 q-0.244 -0.305 -0.549 -0.3965 t-0.6405 -0.0915 t-0.7015 -0.0305 t-0.671 -0.2135 q-0.61 -0.488 -0.549 -1.159 l0.122 -1.342 q0.244 -0.122 0.4575 -0.3355 t0.4575 -0.2135 q1.22 -0.061 2.44 -0.0305 t2.379 0.0305 q0.244 0.305 0.4575 0.488 t0.2745 0.427 q0.122 0.671 0.488 0.915 t1.037 0.305 q0.305 0 0.549 0.0305 t0.549 0.0305 q0.244 0.305 0.366 0.5185 t0.183 0.427 t0.122 0.5795 t0.122 0.976 q0.366 0.549 0.976 1.525 q0.061 0.549 0.061 1.22 t0.061 1.403 q0.671 1.403 1.4335 2.806 t0.8235 3.05 q0.427 0.61 0.7625 1.159 t0.2135 1.342 q-0.061 0.61 0.305 1.037 t0.549 0.915 t0.2135 1.037 t0.1525 1.098 q0.244 0.366 0.4575 0.7015 t0.3965 0.7015 q0 0.61 -0.1525 1.0065 t-0.8845 0.5185 q-0.244 0.061 -0.3965 0.244 t-0.3965 0.305 q0.854 0.427 1.3115 0.671 t0.7625 0.5185 t0.488 0.6405 l0.488 0.976 q0.305 0.488 0.5185 0.9455 t0.5185 0.9455 q0.244 1.037 0.122 2.1655 t0.366 2.1655 q0.793 -0.976 1.1895 -1.7995 t0.5795 -1.7385 q0.061 -0.305 0.0915 -0.549 t0.1525 -0.549 q0.122 -0.366 0.366 -0.7015 t0.427 -0.7015 q0.061 -0.671 0.0915 -1.342 t0.0915 -1.281 q0.305 -0.549 0.61 -1.0675 t0.305 -1.0065 q0.122 -0.854 0.488 -1.5555 t0.61 -1.4945 q0.183 -0.793 0.3355 -1.5555 t0.6405 -1.4945 q0.183 -0.244 0.244 -0.5795 t0.061 -0.7015 t0.061 -0.671 t0.305 -0.61 q0.488 -0.61 0.549 -1.281 t0.183 -1.342 q0.122 -0.366 0.3965 -0.732 t0.5795 -0.915 q0 -0.488 0.0305 -1.1285 t0.0915 -1.4335 q0.488 -0.915 0.9455 -1.891 t1.1285 -2.196 q0 -0.549 0.061 -1.281 t0.122 -1.586 q0.244 -0.122 0.4575 -0.3355 t0.4575 -0.2135 q2.074 -0.061 4.1175 -0.061 l4.0565 0 q0.793 0.549 0.671 1.22 t-0.061 1.281 l-0.915 0.732 q-0.915 0 -1.8605 0.0305 t-1.9215 0.0915 q-0.122 0 -0.427 0.305 q0.122 0.183 0.305 0.3355 t0.305 0.3355 l2.684 0 q0.427 0.305 0.6405 0.6405 t0.0915 0.7015 q-0.488 1.037 -1.0065 1.9825 t-1.0675 1.9825 q0 0.61 -0.0305 1.281 t-0.0915 1.342 q-0.305 0.61 -0.7015 1.159 t-0.3355 1.281 q0.122 0.793 -0.3355 1.3115 t-0.6405 1.1895 q-0.122 0.671 -0.5185 1.22 t-0.7015 1.22 l0 2.867 q0 0.061 -0.427 0.3965 t-0.549 0.8235 q-0.244 0.976 -0.915 1.952 q-0.061 0.122 -0.1525 0.244 t-0.0915 0.244 q0.183 0.61 0 1.098 t-0.4575 0.976 t-0.5185 0.976 t-0.183 1.037 q0.061 0.793 -0.366 1.3115 t-0.732 1.1895 l0 1.525 q-0.305 0.671 -0.7625 1.1895 t-0.3355 1.3115 q0.122 0.671 -0.183 1.037 q-1.098 1.342 -0.976 3.05 q-1.037 1.525 -1.22 3.599 q-0.488 0.671 -0.8235 1.342 t-0.3965 1.464 l-6.954 0 q-0.305 0 -0.549 -0.061 t-0.549 -0.183 q-0.488 -0.366 -0.4575 -0.915 t-0.0915 -1.037 l1.525 0 q0.671 -0.61 1.3725 -0.8845 t1.3725 -0.6405 l-0.915 -1.83 q0.183 -0.122 0.3965 -0.183 t0.3965 -0.183 q0.061 0 0.061 -0.122 t-0.061 -0.183 q-0.244 -0.244 -0.366 -0.061 t-0.366 0.854 l-1.525 0 q-0.61 0.671 -0.8235 1.464 t-0.8845 1.342 q-0.061 0.061 -0.0305 0.2135 t-0.0305 0.2745 z M6.466 18.726999999999997 q-0.549 -0.793 -1.342 -0.61 q-0.671 0.183 -0.427 0.61 q0.122 0.427 0.366 0.305 q0.366 -0.061 0.7015 -0.122 t0.7015 -0.183 z M15.555 52.765 q0.244 0.122 0.427 0.244 t0.427 0.244 q0.305 0.122 0.549 0 t0.305 -0.427 q0 -0.244 -0.244 -0.3965 t-0.549 -0.0915 q-0.244 0.061 -0.4575 0.183 t-0.4575 0.244 z M31.171 32.696 q-0.183 0.183 -0.183 0.305 q0.122 0.305 0.305 0.305 q0.305 0 0.305 -0.305 q0.122 -0.488 -0.427 -0.305 z M6.344 28.548000000000002 q-0.122 -0.122 -0.183 -0.244 t-0.122 -0.122 q-0.854 0.305 -0.061 0.671 q0.061 0.061 0.1525 -0.061 t0.2135 -0.244 z M33.611 22.265 q0.244 -0.244 0.366 -0.305 q-0.122 -0.122 -0.183 -0.2135 t-0.183 -0.1525 q-0.488 0 -0.305 0.488 q0.061 0.061 0.305 0.183 z"></path></g></svg>